<svg xmlns="http://www.w3.org/2000/svg" viewBox="0 0 800 450" font-family="Arial, sans-serif">
  <rect width="800" height="450" fill="#0d1117"/>

  <!-- Title -->
  <text x="400" y="35" text-anchor="middle" fill="#e6edf3" font-size="16" font-weight="bold">Positional Encoding: Each Position Gets a Unique Pattern</text>

  <!-- Axis labels -->
  <text x="400" y="420" text-anchor="middle" fill="#8b949e" font-size="12">Position in Sequence</text>
  <text x="25" y="220" text-anchor="middle" fill="#8b949e" font-size="12" transform="rotate(-90, 25, 220)">Encoding Dimension</text>

  <!-- X-axis tick labels -->
  <text x="80" y="395" text-anchor="middle" fill="#8b949e" font-size="9">0</text>
  <text x="115" y="395" text-anchor="middle" fill="#8b949e" font-size="9">1</text>
  <text x="150" y="395" text-anchor="middle" fill="#8b949e" font-size="9">2</text>
  <text x="185" y="395" text-anchor="middle" fill="#8b949e" font-size="9">3</text>
  <text x="220" y="395" text-anchor="middle" fill="#8b949e" font-size="9">4</text>
  <text x="255" y="395" text-anchor="middle" fill="#8b949e" font-size="9">5</text>
  <text x="290" y="395" text-anchor="middle" fill="#8b949e" font-size="9">6</text>
  <text x="325" y="395" text-anchor="middle" fill="#8b949e" font-size="9">7</text>
  <text x="360" y="395" text-anchor="middle" fill="#8b949e" font-size="9">8</text>
  <text x="395" y="395" text-anchor="middle" fill="#8b949e" font-size="9">9</text>
  <text x="430" y="395" text-anchor="middle" fill="#8b949e" font-size="9">10</text>
  <text x="465" y="395" text-anchor="middle" fill="#8b949e" font-size="9">11</text>
  <text x="500" y="395" text-anchor="middle" fill="#8b949e" font-size="9">12</text>
  <text x="535" y="395" text-anchor="middle" fill="#8b949e" font-size="9">13</text>
  <text x="570" y="395" text-anchor="middle" fill="#8b949e" font-size="9">14</text>
  <text x="605" y="395" text-anchor="middle" fill="#8b949e" font-size="9">15</text>
  <text x="640" y="395" text-anchor="middle" fill="#8b949e" font-size="9">16</text>
  <text x="675" y="395" text-anchor="middle" fill="#8b949e" font-size="9">17</text>
  <text x="710" y="395" text-anchor="middle" fill="#8b949e" font-size="9">18</text>
  <text x="745" y="395" text-anchor="middle" fill="#8b949e" font-size="9">19</text>

  <!-- Y-axis labels (dim) -->
  <text x="60" y="80" text-anchor="end" fill="#8b949e" font-size="9">dim 0 (sin)</text>
  <text x="60" y="120" text-anchor="end" fill="#8b949e" font-size="9">dim 1 (cos)</text>
  <text x="60" y="160" text-anchor="end" fill="#8b949e" font-size="9">dim 2 (sin)</text>
  <text x="60" y="200" text-anchor="end" fill="#8b949e" font-size="9">dim 3 (cos)</text>
  <text x="60" y="240" text-anchor="end" fill="#8b949e" font-size="9">dim 4 (sin)</text>
  <text x="60" y="280" text-anchor="end" fill="#8b949e" font-size="9">dim 5 (cos)</text>
  <text x="60" y="320" text-anchor="end" fill="#8b949e" font-size="9">dim 6 (sin)</text>
  <text x="60" y="360" text-anchor="end" fill="#8b949e" font-size="9">dim 7 (cos)</text>

  <!-- Heatmap grid: 20 positions x 8 dimensions -->
  <!-- PE(pos, 2i) = sin(pos / 10000^(2i/d_model)) -->
  <!-- PE(pos, 2i+1) = cos(pos / 10000^(2i/d_model)) -->
  <!-- Using d_model=512, showing dims 0-7 -->
  <!-- Opacity = (value + 1) / 2 to map [-1,1] to [0,1] -->

  <!-- dim 0: sin(pos / 1) — fast oscillation -->
  <!-- pos 0-19: sin(0)=0, sin(1)=.84, sin(2)=.91, sin(3)=.14, sin(4)=-.76, sin(5)=-.96, sin(6)=-.28, sin(7)=.66, sin(8)=.99, sin(9)=.41, sin(10)=-.54, sin(11)=-1, sin(12)=-.54, sin(13)=.42, sin(14)=.99, sin(15)=.65, sin(16)=-.29, sin(17)=-.96, sin(18)=-.75, sin(19)=.15 -->
  <rect x="68" y="65" width="32" height="32" rx="2" fill="#C9B896" fill-opacity="0.50"/>
  <rect x="103" y="65" width="32" height="32" rx="2" fill="#C9B896" fill-opacity="0.92"/>
  <rect x="138" y="65" width="32" height="32" rx="2" fill="#C9B896" fill-opacity="0.95"/>
  <rect x="173" y="65" width="32" height="32" rx="2" fill="#C9B896" fill-opacity="0.57"/>
  <rect x="208" y="65" width="32" height="32" rx="2" fill="#C9B896" fill-opacity="0.12"/>
  <rect x="243" y="65" width="32" height="32" rx="2" fill="#C9B896" fill-opacity="0.02"/>
  <rect x="278" y="65" width="32" height="32" rx="2" fill="#C9B896" fill-opacity="0.36"/>
  <rect x="313" y="65" width="32" height="32" rx="2" fill="#C9B896" fill-opacity="0.83"/>
  <rect x="348" y="65" width="32" height="32" rx="2" fill="#C9B896" fill-opacity="0.99"/>
  <rect x="383" y="65" width="32" height="32" rx="2" fill="#C9B896" fill-opacity="0.70"/>
  <rect x="418" y="65" width="32" height="32" rx="2" fill="#C9B896" fill-opacity="0.23"/>
  <rect x="453" y="65" width="32" height="32" rx="2" fill="#C9B896" fill-opacity="0.00"/>
  <rect x="488" y="65" width="32" height="32" rx="2" fill="#C9B896" fill-opacity="0.23"/>
  <rect x="523" y="65" width="32" height="32" rx="2" fill="#C9B896" fill-opacity="0.71"/>
  <rect x="558" y="65" width="32" height="32" rx="2" fill="#C9B896" fill-opacity="0.99"/>
  <rect x="593" y="65" width="32" height="32" rx="2" fill="#C9B896" fill-opacity="0.83"/>
  <rect x="628" y="65" width="32" height="32" rx="2" fill="#C9B896" fill-opacity="0.36"/>
  <rect x="663" y="65" width="32" height="32" rx="2" fill="#C9B896" fill-opacity="0.02"/>
  <rect x="698" y="65" width="32" height="32" rx="2" fill="#C9B896" fill-opacity="0.13"/>
  <rect x="733" y="65" width="32" height="32" rx="2" fill="#C9B896" fill-opacity="0.57"/>

  <!-- dim 1: cos(pos / 1) -->
  <!-- cos(0)=1, cos(1)=.54, cos(2)=-.42, cos(3)=-.99, cos(4)=-.65, cos(5)=.28, cos(6)=.96, cos(7)=.75, cos(8)=-.15, cos(9)=-.91, cos(10)=-.84, cos(11)=0, cos(12)=.84, cos(13)=.91, cos(14)=.14, cos(15)=-.76, cos(16)=-.96, cos(17)=-.28, cos(18)=.66, cos(19)=.99 -->
  <rect x="68" y="105" width="32" height="32" rx="2" fill="#C9B896" fill-opacity="1.00"/>
  <rect x="103" y="105" width="32" height="32" rx="2" fill="#C9B896" fill-opacity="0.77"/>
  <rect x="138" y="105" width="32" height="32" rx="2" fill="#C9B896" fill-opacity="0.29"/>
  <rect x="173" y="105" width="32" height="32" rx="2" fill="#C9B896" fill-opacity="0.01"/>
  <rect x="208" y="105" width="32" height="32" rx="2" fill="#C9B896" fill-opacity="0.18"/>
  <rect x="243" y="105" width="32" height="32" rx="2" fill="#C9B896" fill-opacity="0.64"/>
  <rect x="278" y="105" width="32" height="32" rx="2" fill="#C9B896" fill-opacity="0.98"/>
  <rect x="313" y="105" width="32" height="32" rx="2" fill="#C9B896" fill-opacity="0.88"/>
  <rect x="348" y="105" width="32" height="32" rx="2" fill="#C9B896" fill-opacity="0.43"/>
  <rect x="383" y="105" width="32" height="32" rx="2" fill="#C9B896" fill-opacity="0.05"/>
  <rect x="418" y="105" width="32" height="32" rx="2" fill="#C9B896" fill-opacity="0.08"/>
  <rect x="453" y="105" width="32" height="32" rx="2" fill="#C9B896" fill-opacity="0.50"/>
  <rect x="488" y="105" width="32" height="32" rx="2" fill="#C9B896" fill-opacity="0.92"/>
  <rect x="523" y="105" width="32" height="32" rx="2" fill="#C9B896" fill-opacity="0.95"/>
  <rect x="558" y="105" width="32" height="32" rx="2" fill="#C9B896" fill-opacity="0.57"/>
  <rect x="593" y="105" width="32" height="32" rx="2" fill="#C9B896" fill-opacity="0.12"/>
  <rect x="628" y="105" width="32" height="32" rx="2" fill="#C9B896" fill-opacity="0.02"/>
  <rect x="663" y="105" width="32" height="32" rx="2" fill="#C9B896" fill-opacity="0.36"/>
  <rect x="698" y="105" width="32" height="32" rx="2" fill="#C9B896" fill-opacity="0.83"/>
  <rect x="733" y="105" width="32" height="32" rx="2" fill="#C9B896" fill-opacity="0.99"/>

  <!-- dim 2: sin(pos / 10000^(2/512)) ≈ sin(pos / 1.036) — slightly slower -->
  <!-- Approximated with slightly stretched period -->
  <rect x="68" y="145" width="32" height="32" rx="2" fill="#C9B896" fill-opacity="0.50"/>
  <rect x="103" y="145" width="32" height="32" rx="2" fill="#C9B896" fill-opacity="0.90"/>
  <rect x="138" y="145" width="32" height="32" rx="2" fill="#C9B896" fill-opacity="0.98"/>
  <rect x="173" y="145" width="32" height="32" rx="2" fill="#C9B896" fill-opacity="0.65"/>
  <rect x="208" y="145" width="32" height="32" rx="2" fill="#C9B896" fill-opacity="0.18"/>
  <rect x="243" y="145" width="32" height="32" rx="2" fill="#C9B896" fill-opacity="0.03"/>
  <rect x="278" y="145" width="32" height="32" rx="2" fill="#C9B896" fill-opacity="0.28"/>
  <rect x="313" y="145" width="32" height="32" rx="2" fill="#C9B896" fill-opacity="0.75"/>
  <rect x="348" y="145" width="32" height="32" rx="2" fill="#C9B896" fill-opacity="0.98"/>
  <rect x="383" y="145" width="32" height="32" rx="2" fill="#C9B896" fill-opacity="0.78"/>
  <rect x="418" y="145" width="32" height="32" rx="2" fill="#C9B896" fill-opacity="0.30"/>
  <rect x="453" y="145" width="32" height="32" rx="2" fill="#C9B896" fill-opacity="0.03"/>
  <rect x="488" y="145" width="32" height="32" rx="2" fill="#C9B896" fill-opacity="0.18"/>
  <rect x="523" y="145" width="32" height="32" rx="2" fill="#C9B896" fill-opacity="0.63"/>
  <rect x="558" y="145" width="32" height="32" rx="2" fill="#C9B896" fill-opacity="0.95"/>
  <rect x="593" y="145" width="32" height="32" rx="2" fill="#C9B896" fill-opacity="0.88"/>
  <rect x="628" y="145" width="32" height="32" rx="2" fill="#C9B896" fill-opacity="0.42"/>
  <rect x="663" y="145" width="32" height="32" rx="2" fill="#C9B896" fill-opacity="0.06"/>
  <rect x="698" y="145" width="32" height="32" rx="2" fill="#C9B896" fill-opacity="0.08"/>
  <rect x="733" y="145" width="32" height="32" rx="2" fill="#C9B896" fill-opacity="0.48"/>

  <!-- dim 3: cos — shifted version of dim 2 -->
  <rect x="68" y="185" width="32" height="32" rx="2" fill="#C9B896" fill-opacity="1.00"/>
  <rect x="103" y="185" width="32" height="32" rx="2" fill="#C9B896" fill-opacity="0.80"/>
  <rect x="138" y="185" width="32" height="32" rx="2" fill="#C9B896" fill-opacity="0.35"/>
  <rect x="173" y="185" width="32" height="32" rx="2" fill="#C9B896" fill-opacity="0.03"/>
  <rect x="208" y="185" width="32" height="32" rx="2" fill="#C9B896" fill-opacity="0.12"/>
  <rect x="243" y="185" width="32" height="32" rx="2" fill="#C9B896" fill-opacity="0.55"/>
  <rect x="278" y="185" width="32" height="32" rx="2" fill="#C9B896" fill-opacity="0.94"/>
  <rect x="313" y="185" width="32" height="32" rx="2" fill="#C9B896" fill-opacity="0.92"/>
  <rect x="348" y="185" width="32" height="32" rx="2" fill="#C9B896" fill-opacity="0.50"/>
  <rect x="383" y="185" width="32" height="32" rx="2" fill="#C9B896" fill-opacity="0.08"/>
  <rect x="418" y="185" width="32" height="32" rx="2" fill="#C9B896" fill-opacity="0.05"/>
  <rect x="453" y="185" width="32" height="32" rx="2" fill="#C9B896" fill-opacity="0.42"/>
  <rect x="488" y="185" width="32" height="32" rx="2" fill="#C9B896" fill-opacity="0.88"/>
  <rect x="523" y="185" width="32" height="32" rx="2" fill="#C9B896" fill-opacity="0.97"/>
  <rect x="558" y="185" width="32" height="32" rx="2" fill="#C9B896" fill-opacity="0.63"/>
  <rect x="593" y="185" width="32" height="32" rx="2" fill="#C9B896" fill-opacity="0.17"/>
  <rect x="628" y="185" width="32" height="32" rx="2" fill="#C9B896" fill-opacity="0.02"/>
  <rect x="663" y="185" width="32" height="32" rx="2" fill="#C9B896" fill-opacity="0.28"/>
  <rect x="698" y="185" width="32" height="32" rx="2" fill="#C9B896" fill-opacity="0.73"/>
  <rect x="733" y="185" width="32" height="32" rx="2" fill="#C9B896" fill-opacity="0.98"/>

  <!-- dim 4: sin — longer wavelength -->
  <rect x="68" y="225" width="32" height="32" rx="2" fill="#C9B896" fill-opacity="0.50"/>
  <rect x="103" y="225" width="32" height="32" rx="2" fill="#C9B896" fill-opacity="0.85"/>
  <rect x="138" y="225" width="32" height="32" rx="2" fill="#C9B896" fill-opacity="0.99"/>
  <rect x="173" y="225" width="32" height="32" rx="2" fill="#C9B896" fill-opacity="0.78"/>
  <rect x="208" y="225" width="32" height="32" rx="2" fill="#C9B896" fill-opacity="0.35"/>
  <rect x="243" y="225" width="32" height="32" rx="2" fill="#C9B896" fill-opacity="0.08"/>
  <rect x="278" y="225" width="32" height="32" rx="2" fill="#C9B896" fill-opacity="0.12"/>
  <rect x="313" y="225" width="32" height="32" rx="2" fill="#C9B896" fill-opacity="0.50"/>
  <rect x="348" y="225" width="32" height="32" rx="2" fill="#C9B896" fill-opacity="0.88"/>
  <rect x="383" y="225" width="32" height="32" rx="2" fill="#C9B896" fill-opacity="0.99"/>
  <rect x="418" y="225" width="32" height="32" rx="2" fill="#C9B896" fill-opacity="0.72"/>
  <rect x="453" y="225" width="32" height="32" rx="2" fill="#C9B896" fill-opacity="0.28"/>
  <rect x="488" y="225" width="32" height="32" rx="2" fill="#C9B896" fill-opacity="0.05"/>
  <rect x="523" y="225" width="32" height="32" rx="2" fill="#C9B896" fill-opacity="0.15"/>
  <rect x="558" y="225" width="32" height="32" rx="2" fill="#C9B896" fill-opacity="0.55"/>
  <rect x="593" y="225" width="32" height="32" rx="2" fill="#C9B896" fill-opacity="0.90"/>
  <rect x="628" y="225" width="32" height="32" rx="2" fill="#C9B896" fill-opacity="0.99"/>
  <rect x="663" y="225" width="32" height="32" rx="2" fill="#C9B896" fill-opacity="0.70"/>
  <rect x="698" y="225" width="32" height="32" rx="2" fill="#C9B896" fill-opacity="0.25"/>
  <rect x="733" y="225" width="32" height="32" rx="2" fill="#C9B896" fill-opacity="0.05"/>

  <!-- dim 5: cos — shifted dim 4 -->
  <rect x="68" y="265" width="32" height="32" rx="2" fill="#C9B896" fill-opacity="1.00"/>
  <rect x="103" y="265" width="32" height="32" rx="2" fill="#C9B896" fill-opacity="0.88"/>
  <rect x="138" y="265" width="32" height="32" rx="2" fill="#C9B896" fill-opacity="0.50"/>
  <rect x="173" y="265" width="32" height="32" rx="2" fill="#C9B896" fill-opacity="0.12"/>
  <rect x="208" y="265" width="32" height="32" rx="2" fill="#C9B896" fill-opacity="0.02"/>
  <rect x="243" y="265" width="32" height="32" rx="2" fill="#C9B896" fill-opacity="0.25"/>
  <rect x="278" y="265" width="32" height="32" rx="2" fill="#C9B896" fill-opacity="0.68"/>
  <rect x="313" y="265" width="32" height="32" rx="2" fill="#C9B896" fill-opacity="0.96"/>
  <rect x="348" y="265" width="32" height="32" rx="2" fill="#C9B896" fill-opacity="0.82"/>
  <rect x="383" y="265" width="32" height="32" rx="2" fill="#C9B896" fill-opacity="0.38"/>
  <rect x="418" y="265" width="32" height="32" rx="2" fill="#C9B896" fill-opacity="0.05"/>
  <rect x="453" y="265" width="32" height="32" rx="2" fill="#C9B896" fill-opacity="0.08"/>
  <rect x="488" y="265" width="32" height="32" rx="2" fill="#C9B896" fill-opacity="0.42"/>
  <rect x="523" y="265" width="32" height="32" rx="2" fill="#C9B896" fill-opacity="0.85"/>
  <rect x="558" y="265" width="32" height="32" rx="2" fill="#C9B896" fill-opacity="1.00"/>
  <rect x="593" y="265" width="32" height="32" rx="2" fill="#C9B896" fill-opacity="0.72"/>
  <rect x="628" y="265" width="32" height="32" rx="2" fill="#C9B896" fill-opacity="0.25"/>
  <rect x="663" y="265" width="32" height="32" rx="2" fill="#C9B896" fill-opacity="0.02"/>
  <rect x="698" y="265" width="32" height="32" rx="2" fill="#C9B896" fill-opacity="0.15"/>
  <rect x="733" y="265" width="32" height="32" rx="2" fill="#C9B896" fill-opacity="0.58"/>

  <!-- dim 6: sin — even longer wavelength -->
  <rect x="68" y="305" width="32" height="32" rx="2" fill="#C9B896" fill-opacity="0.50"/>
  <rect x="103" y="305" width="32" height="32" rx="2" fill="#C9B896" fill-opacity="0.75"/>
  <rect x="138" y="305" width="32" height="32" rx="2" fill="#C9B896" fill-opacity="0.92"/>
  <rect x="173" y="305" width="32" height="32" rx="2" fill="#C9B896" fill-opacity="0.98"/>
  <rect x="208" y="305" width="32" height="32" rx="2" fill="#C9B896" fill-opacity="0.88"/>
  <rect x="243" y="305" width="32" height="32" rx="2" fill="#C9B896" fill-opacity="0.68"/>
  <rect x="278" y="305" width="32" height="32" rx="2" fill="#C9B896" fill-opacity="0.42"/>
  <rect x="313" y="305" width="32" height="32" rx="2" fill="#C9B896" fill-opacity="0.18"/>
  <rect x="348" y="305" width="32" height="32" rx="2" fill="#C9B896" fill-opacity="0.05"/>
  <rect x="383" y="305" width="32" height="32" rx="2" fill="#C9B896" fill-opacity="0.05"/>
  <rect x="418" y="305" width="32" height="32" rx="2" fill="#C9B896" fill-opacity="0.18"/>
  <rect x="453" y="305" width="32" height="32" rx="2" fill="#C9B896" fill-opacity="0.42"/>
  <rect x="488" y="305" width="32" height="32" rx="2" fill="#C9B896" fill-opacity="0.68"/>
  <rect x="523" y="305" width="32" height="32" rx="2" fill="#C9B896" fill-opacity="0.88"/>
  <rect x="558" y="305" width="32" height="32" rx="2" fill="#C9B896" fill-opacity="0.98"/>
  <rect x="593" y="305" width="32" height="32" rx="2" fill="#C9B896" fill-opacity="0.92"/>
  <rect x="628" y="305" width="32" height="32" rx="2" fill="#C9B896" fill-opacity="0.75"/>
  <rect x="663" y="305" width="32" height="32" rx="2" fill="#C9B896" fill-opacity="0.50"/>
  <rect x="698" y="305" width="32" height="32" rx="2" fill="#C9B896" fill-opacity="0.25"/>
  <rect x="733" y="305" width="32" height="32" rx="2" fill="#C9B896" fill-opacity="0.08"/>

  <!-- dim 7: cos — shifted dim 6 -->
  <rect x="68" y="345" width="32" height="32" rx="2" fill="#C9B896" fill-opacity="1.00"/>
  <rect x="103" y="345" width="32" height="32" rx="2" fill="#C9B896" fill-opacity="0.95"/>
  <rect x="138" y="345" width="32" height="32" rx="2" fill="#C9B896" fill-opacity="0.78"/>
  <rect x="173" y="345" width="32" height="32" rx="2" fill="#C9B896" fill-opacity="0.52"/>
  <rect x="208" y="345" width="32" height="32" rx="2" fill="#C9B896" fill-opacity="0.25"/>
  <rect x="243" y="345" width="32" height="32" rx="2" fill="#C9B896" fill-opacity="0.08"/>
  <rect x="278" y="345" width="32" height="32" rx="2" fill="#C9B896" fill-opacity="0.02"/>
  <rect x="313" y="345" width="32" height="32" rx="2" fill="#C9B896" fill-opacity="0.10"/>
  <rect x="348" y="345" width="32" height="32" rx="2" fill="#C9B896" fill-opacity="0.30"/>
  <rect x="383" y="345" width="32" height="32" rx="2" fill="#C9B896" fill-opacity="0.55"/>
  <rect x="418" y="345" width="32" height="32" rx="2" fill="#C9B896" fill-opacity="0.78"/>
  <rect x="453" y="345" width="32" height="32" rx="2" fill="#C9B896" fill-opacity="0.94"/>
  <rect x="488" y="345" width="32" height="32" rx="2" fill="#C9B896" fill-opacity="1.00"/>
  <rect x="523" y="345" width="32" height="32" rx="2" fill="#C9B896" fill-opacity="0.92"/>
  <rect x="558" y="345" width="32" height="32" rx="2" fill="#C9B896" fill-opacity="0.70"/>
  <rect x="593" y="345" width="32" height="32" rx="2" fill="#C9B896" fill-opacity="0.40"/>
  <rect x="628" y="345" width="32" height="32" rx="2" fill="#C9B896" fill-opacity="0.15"/>
  <rect x="663" y="345" width="32" height="32" rx="2" fill="#C9B896" fill-opacity="0.02"/>
  <rect x="698" y="345" width="32" height="32" rx="2" fill="#C9B896" fill-opacity="0.05"/>
  <rect x="733" y="345" width="32" height="32" rx="2" fill="#C9B896" fill-opacity="0.22"/>

  <!-- Annotation: wavelength increases -->
  <line x1="770" y1="75" x2="770" y2="370" stroke="#388bfd" stroke-opacity="0.4" stroke-width="1"/>
  <text x="785" y="225" text-anchor="middle" fill="#388bfd" fill-opacity="0.6" font-size="9" transform="rotate(90, 785, 225)">Wavelength increases with dimension</text>

  <!-- Bracket showing nearby positions are similar -->
  <path d="M 68,57 L 68,52 L 165,52 L 165,57" fill="none" stroke="#388bfd" stroke-opacity="0.5" stroke-width="1"/>
  <text x="116" y="48" text-anchor="middle" fill="#388bfd" fill-opacity="0.6" font-size="8">similar patterns</text>

  <!-- Bottom subtitle -->
  <text x="400" y="440" text-anchor="middle" fill="#8b949e" font-size="11">Low dimensions oscillate rapidly (local position) — high dimensions change slowly (global position)</text>
</svg>